# xmcd
#
# Track frame offsets: 
#        150
#        16350
#        33502
#        56327
#        73135
#        95027
#        111657
#        131692
#        151402
#        168032
#        198270
#        221535
#
# Disc length: 4067 seconds
#
# Revision: 0
# Processed by: cddbd v1.5.1PL0 Copyright (c) Steve Scherf et al.
# Submitted via: ExactAudioCopy v0.95a3
#
DISCID=a90fe10c
DTITLE=Various Artist - ProMix 7. Disk B
DYEAR=1998
DGENRE=Pop
TTITLE0=Доктор - Авто-Стоп
TTITLE1=Стрелки - Мамочка
TTITLE2=Инспектор - В Наших Глазах (Remix)
TTITLE3=Алёнушки - Орлица
TTITLE4=Тусавэй - Я Вернусь
TTITLE5=Лезвие - День
TTITLE6=Маша Распутина - Ты Меня Не Буди (Remix)
TTITLE7=О. Федотова - Зимушка (Remix)
TTITLE8=Людмила Кравцова - Серебряный Дождь
TTITLE9=Андрей Баранов - Нарежка Альбома 98
TTITLE10=Наиль - Начало Фантазий
TTITLE11=МГК - Интервью
EXTD=
EXTT0=
EXTT1=
EXTT2=
EXTT3=
EXTT4=
EXTT5=
EXTT6=
EXTT7=
EXTT8=
EXTT9=
EXTT10=
EXTT11=
PLAYORDER=
